<svg width="40" height="39" viewBox="0 0 40 39" fill="none" xmlns="http://www.w3.org/2000/svg">
<path d="M19.9568 19.1682C19.9568 29.0715 24.1736 37.0997 29.3753 37.0997C34.577 37.0997 38.7938 29.0715 38.7938 19.1682C38.7938 9.26499 34.577 1.23682 29.3753 1.23682C24.1736 1.23682 19.9568 9.26499 19.9568 19.1682Z" fill="white"/>
<path fill-rule="evenodd" clip-rule="evenodd" d="M35.0438 7.00941C36.648 10.0637 37.674 14.3606 37.674 19.1682C37.674 23.9758 36.648 28.2728 35.0438 31.327C33.4121 34.4336 31.3523 35.98 29.3751 35.98C27.3979 35.98 25.3381 34.4336 23.7064 31.327C22.1021 28.2728 21.0762 23.9758 21.0762 19.1682C21.0762 14.3606 22.1021 10.0637 23.7064 7.00941C25.3381 3.90288 27.3979 2.3564 29.3751 2.3564C31.3523 2.3564 33.4121 3.90288 35.0438 7.00941ZM37.0262 5.96816C35.249 2.58479 32.5996 0.117188 29.3751 0.117188C26.1506 0.117188 23.5011 2.58479 21.724 5.96816C19.9194 9.40379 18.8369 14.0726 18.8369 19.1682C18.8369 24.2639 19.9194 28.9326 21.724 32.3683C23.5011 35.7517 26.1506 38.2193 29.3751 38.2193C32.5996 38.2193 35.249 35.7517 37.0262 32.3683C38.8307 28.9326 39.9132 24.2639 39.9132 19.1682C39.9132 14.0726 38.8307 9.40379 37.0262 5.96816Z" fill="black"/>
<path d="M1.11997 19.1682C1.11997 29.0715 5.33679 37.0997 10.5385 37.0997C15.7402 37.0997 19.957 29.0715 19.957 19.1682C19.957 9.26499 15.7402 1.23682 10.5385 1.23682C5.33679 1.23682 1.11997 9.26499 1.11997 19.1682Z" fill="white"/>
<path d="M1.11997 19.1682C1.11997 29.0715 5.33679 37.0997 10.5385 37.0997C15.7402 37.0997 19.957 29.0715 19.957 19.1682C19.957 9.26499 15.7402 1.23682 10.5385 1.23682C5.33679 1.23682 1.11997 9.26499 1.11997 19.1682Z" fill="white"/>
<path fill-rule="evenodd" clip-rule="evenodd" d="M16.2069 7.00941C17.8111 10.0637 18.8371 14.3606 18.8371 19.1682C18.8371 23.9758 17.8111 28.2728 16.2069 31.327C14.5752 34.4336 12.5154 35.98 10.5382 35.98C8.56097 35.98 6.50116 34.4336 4.86945 31.327C3.26519 28.2728 2.23924 23.9758 2.23924 19.1682C2.23924 14.3606 3.26519 10.0637 4.86945 7.00941C6.50116 3.90288 8.56097 2.3564 10.5382 2.3564C12.5154 2.3564 14.5752 3.90288 16.2069 7.00941ZM18.1893 5.96816C16.4121 2.58479 13.7627 0.117188 10.5382 0.117188C7.31364 0.117188 4.66418 2.58479 2.88706 5.96816C1.08249 9.40379 2.47955e-05 14.0726 2.47955e-05 19.1682C2.47955e-05 24.2639 1.08249 28.9326 2.88706 32.3683C4.66418 35.7517 7.31364 38.2193 10.5382 38.2193C13.7627 38.2193 16.4121 35.7517 18.1893 32.3683C19.9938 28.9326 21.0763 24.2639 21.0763 19.1682C21.0763 14.0726 19.9938 9.40379 18.1893 5.96816Z" fill="black"/>
<path d="M29.361 19.1683C29.361 24.37 31.591 28.5868 34.3419 28.5868C37.0928 28.5868 38.6511 24.37 38.6511 19.1683C38.6511 13.9666 37.0928 9.74976 34.3419 9.74976C31.591 9.74976 29.361 13.9666 29.361 19.1683Z" fill="black"/>
<path d="M10.5243 19.1683C10.5243 24.37 12.7544 28.5868 15.5053 28.5868C18.2562 28.5868 19.8145 24.37 19.8145 19.1683C19.8145 13.9666 18.2562 9.74976 15.5053 9.74976C12.7544 9.74976 10.5243 13.9666 10.5243 19.1683Z" fill="black"/>
</svg>
