<svg width="216" height="45" viewBox="0 0 216 45" fill="none" xmlns="http://www.w3.org/2000/svg">
<path d="M19.9568 22.1682C19.9568 32.0714 24.1736 40.0996 29.3753 40.0996C34.577 40.0996 38.7938 32.0714 38.7938 22.1682C38.7938 12.2649 34.577 4.23676 29.3753 4.23676C24.1736 4.23676 19.9568 12.2649 19.9568 22.1682Z" fill="white"/>
<path fill-rule="evenodd" clip-rule="evenodd" d="M35.0438 10.0093C36.648 13.0636 37.674 17.3605 37.674 22.1681C37.674 26.9757 36.648 31.2726 35.0438 34.3269C33.4121 37.4334 31.3523 38.9799 29.3751 38.9799C27.3979 38.9799 25.3381 37.4334 23.7064 34.3269C22.1021 31.2726 21.0762 26.9757 21.0762 22.1681C21.0762 17.3605 22.1021 13.0636 23.7064 10.0093C25.3381 6.90276 27.3979 5.35628 29.3751 5.35628C31.3523 5.35628 33.4121 6.90276 35.0438 10.0093ZM37.0262 8.96804C35.249 5.58467 32.5996 3.11707 29.3751 3.11707C26.1506 3.11707 23.5011 5.58467 21.724 8.96804C19.9194 12.4037 18.8369 17.0725 18.8369 22.1681C18.8369 27.2637 19.9194 31.9325 21.724 35.3682C23.5011 38.7515 26.1506 41.2191 29.3751 41.2191C32.5996 41.2191 35.249 38.7515 37.0262 35.3682C38.8307 31.9325 39.9132 27.2637 39.9132 22.1681C39.9132 17.0725 38.8307 12.4037 37.0262 8.96804Z" fill="black"/>
<path d="M1.11997 22.1682C1.11997 32.0714 5.33679 40.0996 10.5385 40.0996C15.7402 40.0996 19.957 32.0714 19.957 22.1682C19.957 12.2649 15.7402 4.23676 10.5385 4.23676C5.33679 4.23676 1.11997 12.2649 1.11997 22.1682Z" fill="white"/>
<path d="M1.11997 22.1682C1.11997 32.0714 5.33679 40.0996 10.5385 40.0996C15.7402 40.0996 19.957 32.0714 19.957 22.1682C19.957 12.2649 15.7402 4.23676 10.5385 4.23676C5.33679 4.23676 1.11997 12.2649 1.11997 22.1682Z" fill="white"/>
<path fill-rule="evenodd" clip-rule="evenodd" d="M16.2069 10.0093C17.8111 13.0636 18.8371 17.3605 18.8371 22.1681C18.8371 26.9757 17.8111 31.2726 16.2069 34.3269C14.5752 37.4334 12.5154 38.9799 10.5382 38.9799C8.56097 38.9799 6.50116 37.4334 4.86945 34.3269C3.26519 31.2726 2.23924 26.9757 2.23924 22.1681C2.23924 17.3605 3.26519 13.0636 4.86945 10.0093C6.50116 6.90276 8.56097 5.35628 10.5382 5.35628C12.5154 5.35628 14.5752 6.90276 16.2069 10.0093ZM18.1893 8.96804C16.4121 5.58467 13.7627 3.11707 10.5382 3.11707C7.31364 3.11707 4.66418 5.58467 2.88706 8.96804C1.08249 12.4037 2.48692e-05 17.0725 2.48692e-05 22.1681C2.48692e-05 27.2637 1.08249 31.9325 2.88706 35.3682C4.66418 38.7515 7.31364 41.2191 10.5382 41.2191C13.7627 41.2191 16.4121 38.7515 18.1893 35.3682C19.9938 31.9325 21.0763 27.2637 21.0763 22.1681C21.0763 17.0725 19.9938 12.4037 18.1893 8.96804Z" fill="black"/>
<path d="M29.361 22.1682C29.361 27.3699 31.591 31.5867 34.3419 31.5867C37.0928 31.5867 38.6511 27.3699 38.6511 22.1682C38.6511 16.9665 37.0928 12.7496 34.3419 12.7496C31.591 12.7496 29.361 16.9665 29.361 22.1682Z" fill="black"/>
<path d="M10.5243 22.1682C10.5243 27.3699 12.7544 31.5867 15.5053 31.5867C18.2562 31.5867 19.8145 27.3699 19.8145 22.1682C19.8145 16.9665 18.2562 12.7496 15.5053 12.7496C12.7544 12.7496 10.5243 16.9665 10.5243 22.1682Z" fill="black"/>
<path d="M68.3365 2.475C72.0687 2.475 75.3098 3.10358 78.0598 4.36072C80.8098 5.57858 82.9312 7.34644 84.4241 9.6643C85.9169 11.9429 86.6634 14.6339 86.6634 17.7375C86.6634 20.8411 85.9169 23.5322 84.4241 25.8107C82.9312 28.0893 80.8098 29.8572 78.0598 31.1143C75.3098 32.3322 72.0687 32.9411 68.3365 32.9411H61.1472V43.7251H49.4794V2.475H68.3365ZM67.6294 23.7482C70.0258 23.7482 71.833 23.2375 73.0508 22.2161C74.2687 21.1554 74.8776 19.6625 74.8776 17.7375C74.8776 15.8125 74.2687 14.3197 73.0508 13.2589C71.833 12.1982 70.0258 11.6679 67.6294 11.6679H61.1472V23.7482H67.6294Z" fill="black"/>
<path d="M102.666 35.7108C104.198 35.7108 105.514 35.4947 106.614 35.0625C107.754 34.6304 108.893 33.9233 110.032 32.9411L115.866 39.0697C112.841 42.5268 108.323 44.2554 102.313 44.2554C98.5805 44.2554 95.3001 43.5483 92.4715 42.134C89.6429 40.7197 87.4429 38.7554 85.8715 36.2411C84.3394 33.7268 83.5733 30.8786 83.5733 27.6965C83.5733 24.5536 84.3394 21.7447 85.8715 19.2697C87.4036 16.7554 89.5054 14.7911 92.1769 13.3768C94.8876 11.9625 97.9126 11.2554 101.252 11.2554C104.355 11.2554 107.184 11.9036 109.738 13.2C112.33 14.4572 114.393 16.3232 115.925 18.7982C117.457 21.234 118.223 24.1411 118.223 27.5197L95.4179 31.8804C96.6358 34.434 99.0519 35.7108 102.666 35.7108ZM101.311 19.2107C99.3858 19.2107 97.8144 19.8197 96.5965 21.0375C95.3787 22.2161 94.6912 23.925 94.534 26.1643L107.498 23.6304C107.105 22.2947 106.359 21.234 105.259 20.4482C104.159 19.6232 102.843 19.2107 101.311 19.2107Z" fill="black"/>
<path d="M134.287 35.7108C135.82 35.7108 137.136 35.4947 138.236 35.0625C139.375 34.6304 140.514 33.9233 141.653 32.9411L147.487 39.0697C144.462 42.5268 139.945 44.2554 133.934 44.2554C130.202 44.2554 126.921 43.5483 124.093 42.134C121.264 40.7197 119.064 38.7554 117.493 36.2411C115.961 33.7268 115.194 30.8786 115.194 27.6965C115.194 24.5536 115.961 21.7447 117.493 19.2697C119.025 16.7554 121.127 14.7911 123.798 13.3768C126.509 11.9625 129.534 11.2554 132.873 11.2554C135.977 11.2554 138.805 11.9036 141.359 13.2C143.952 14.4572 146.014 16.3232 147.546 18.7982C149.078 21.234 149.845 24.1411 149.845 27.5197L127.039 31.8804C128.257 34.434 130.673 35.7108 134.287 35.7108ZM132.932 19.2107C131.007 19.2107 129.436 19.8197 128.218 21.0375C127 22.2161 126.312 23.925 126.155 26.1643L139.12 23.6304C138.727 22.2947 137.98 21.234 136.88 20.4482C135.78 19.6232 134.464 19.2107 132.932 19.2107Z" fill="black"/>
<path d="M193.489 32.5286L190.189 35.8876V43.7251H178.993V0H190.189V22.9232L201.621 11.7857H214.88L201.621 25.4572L216 43.7251H202.446L193.489 32.5286Z" fill="black"/>
<path d="M166.073 35.7108C167.605 35.7108 168.921 35.4947 170.021 35.0625C171.161 34.6304 172.3 33.9233 173.439 32.9411L179.273 39.0697C176.248 42.5268 171.73 44.2554 165.72 44.2554C161.987 44.2554 158.707 43.5483 155.878 42.134C153.05 40.7197 150.85 38.7554 149.278 36.2411C147.746 33.7268 146.98 30.8786 146.98 27.6965C146.98 24.5536 147.746 21.7447 149.278 19.2697C150.811 16.7554 152.912 14.7911 155.584 13.3768C158.295 11.9625 161.32 11.2554 164.659 11.2554C167.762 11.2554 170.591 11.9036 173.145 13.2C175.737 14.4572 177.8 16.3232 179.332 18.7982C180.864 21.234 181.63 24.1411 181.63 27.5197L158.825 31.8804C160.043 34.434 162.459 35.7108 166.073 35.7108ZM164.718 19.2107C162.793 19.2107 161.221 19.8197 160.004 21.0375C158.786 22.2161 158.098 23.925 157.941 26.1643L170.905 23.6304C170.512 22.2947 169.766 21.234 168.666 20.4482C167.566 19.6232 166.25 19.2107 164.718 19.2107Z" fill="black"/>
</svg>
