<svg width="514" height="137" viewBox="0 0 514 137" fill="none" xmlns="http://www.w3.org/2000/svg">
<path d="M57.9488 7.92031C69.4179 7.92031 79.3778 9.85196 87.8287 13.7153C96.2795 17.4578 102.799 22.8906 107.386 30.0135C111.974 37.0157 114.268 45.2856 114.268 54.8231C114.268 64.3606 111.974 72.6305 107.386 79.6327C102.799 86.6349 96.2795 92.0677 87.8287 95.931C79.3778 99.6735 69.4179 101.545 57.9488 101.545H35.8558V134.685H0V7.92031H57.9488ZM55.7757 73.2945C63.1401 73.2945 68.6935 71.725 72.436 68.5861C76.1786 65.3264 78.0498 60.7388 78.0498 54.8231C78.0498 48.9074 76.1786 44.3198 72.436 41.0601C68.6935 37.8005 63.1401 36.1706 55.7757 36.1706H35.8558V73.2945H55.7757Z" fill="black"/>
<path d="M258.445 110.056C263.153 110.056 267.198 109.392 270.578 108.064C274.079 106.736 277.58 104.563 281.081 101.545L299.009 120.378C289.713 131.002 275.83 136.314 257.358 136.314C245.889 136.314 235.809 134.141 227.116 129.795C218.424 125.449 211.663 119.413 206.834 111.686C202.126 103.959 199.772 95.2066 199.772 85.4276C199.772 75.7694 202.126 67.1374 206.834 59.5315C211.543 51.8049 218.001 45.7685 226.211 41.4223C234.541 37.0761 243.837 34.903 254.099 34.903C263.636 34.903 272.329 36.895 280.176 40.879C288.144 44.7423 294.482 50.4769 299.19 58.0828C303.899 65.5679 306.253 74.5018 306.253 84.8844L236.171 98.2852C239.913 106.132 247.338 110.056 258.445 110.056ZM254.28 59.3504C248.364 59.3504 243.535 61.2217 239.793 64.9643C236.05 68.5861 233.937 73.8378 233.454 80.7192L273.294 72.9323C272.087 68.8276 269.793 65.5679 266.413 63.1533C263.033 60.6181 258.988 59.3504 254.28 59.3504Z" fill="black"/>
<path d="M355.618 110.056C360.326 110.056 364.371 109.392 367.751 108.064C371.252 106.736 374.753 104.563 378.254 101.545L396.182 120.378C386.886 131.002 373.003 136.314 354.532 136.314C343.063 136.314 332.982 134.141 324.29 129.795C315.597 125.449 308.837 119.413 304.007 111.686C299.299 103.959 296.945 95.2066 296.945 85.4276C296.945 75.7694 299.299 67.1374 304.007 59.5315C308.716 51.8049 315.175 45.7685 323.384 41.4223C331.714 37.0761 341.01 34.903 351.272 34.903C360.809 34.903 369.502 36.895 377.349 40.879C385.317 44.7423 391.655 50.4769 396.363 58.0828C401.072 65.5679 403.426 74.5018 403.426 84.8844L333.344 98.2852C337.087 106.132 344.511 110.056 355.618 110.056ZM351.453 59.3504C345.537 59.3504 340.708 61.2217 336.966 64.9643C333.223 68.5861 331.111 73.8378 330.628 80.7192L370.468 72.9323C369.26 68.8276 366.966 65.5679 363.586 63.1533C360.206 60.6181 356.161 59.3504 351.453 59.3504Z" fill="black"/>
<path d="M444.823 100.277L434.682 110.599V134.685H400.275V0.314453H434.682V70.7592L469.814 36.5328H510.559L469.814 78.5462L514 134.685H472.349L444.823 100.277Z" fill="black"/>
<path d="M161.173 110.056C165.882 110.056 169.926 109.392 173.306 108.064C176.807 106.736 180.308 104.563 183.809 101.545L201.737 120.378C192.441 131.002 178.558 136.314 160.087 136.314C148.618 136.314 138.537 134.141 129.845 129.795C121.152 125.449 114.392 119.413 109.563 111.686C104.855 103.959 102.5 95.2066 102.5 85.4276C102.5 75.7694 104.855 67.1374 109.563 59.5315C114.271 51.8049 120.73 45.7685 128.939 41.4223C137.269 37.0761 146.565 34.903 156.827 34.903C166.364 34.903 175.057 36.895 182.904 40.879C190.872 44.7423 197.21 50.4769 201.918 58.0828C206.627 65.5679 208.981 74.5018 208.981 84.8844L138.899 98.2852C142.642 106.132 150.066 110.056 161.173 110.056ZM157.008 59.3504C151.092 59.3504 146.263 61.2217 142.521 64.9643C138.778 68.5861 136.666 73.8378 136.183 80.7192L176.023 72.9323C174.815 68.8276 172.521 65.5679 169.141 63.1533C165.761 60.6181 161.716 59.3504 157.008 59.3504Z" fill="black"/>
</svg>
