<svg width="909" height="185" viewBox="0 0 909 185" fill="none" xmlns="http://www.w3.org/2000/svg">
<path d="M83.2303 92.4537C83.2303 133.756 100.817 167.238 122.511 167.238C144.205 167.238 161.791 133.756 161.791 92.4537C161.791 51.1516 144.205 17.6697 122.511 17.6697C100.817 17.6697 83.2303 51.1516 83.2303 92.4537Z" fill="white"/>
<path fill-rule="evenodd" clip-rule="evenodd" d="M146.152 41.7444C152.842 54.4824 157.121 72.403 157.121 92.4534C157.121 112.504 152.842 130.424 146.152 143.162C139.347 156.118 130.756 162.568 122.51 162.568C114.264 162.568 105.674 156.118 98.8684 143.162C92.1778 130.424 87.899 112.504 87.899 92.4534C87.899 72.403 92.1778 54.4824 98.8684 41.7444C105.674 28.7885 114.264 22.3388 122.51 22.3388C130.756 22.3388 139.347 28.7885 146.152 41.7444ZM154.419 37.4018C147.008 23.2913 135.958 13 122.51 13C109.062 13 98.0124 23.2913 90.6008 37.4018C83.0747 51.7303 78.5603 71.2017 78.5603 92.4534C78.5603 113.705 83.0747 133.176 90.6008 147.505C98.0124 161.615 109.062 171.907 122.51 171.907C135.958 171.907 147.008 161.615 154.419 147.505C161.946 133.176 166.46 113.705 166.46 92.4534C166.46 71.2017 161.946 51.7303 154.419 37.4018Z" fill="black"/>
<path d="M4.67007 92.4537C4.67007 133.756 22.2565 167.238 43.9505 167.238C65.6446 167.238 83.231 133.756 83.231 92.4537C83.231 51.1516 65.6446 17.6697 43.9505 17.6697C22.2565 17.6697 4.67007 51.1516 4.67007 92.4537Z" fill="white"/>
<path d="M4.67007 92.4537C4.67007 133.756 22.2565 167.238 43.9505 167.238C65.6446 167.238 83.231 133.756 83.231 92.4537C83.231 51.1516 65.6446 17.6697 43.9505 17.6697C22.2565 17.6697 4.67007 51.1516 4.67007 92.4537Z" fill="white"/>
<path fill-rule="evenodd" clip-rule="evenodd" d="M67.5915 41.7444C74.2822 54.4824 78.561 72.403 78.561 92.4534C78.561 112.504 74.2822 130.424 67.5915 143.162C60.7864 156.118 52.1959 162.568 43.9499 162.568C35.7039 162.568 27.1133 156.118 20.3082 143.162C13.6175 130.424 9.33877 112.504 9.33877 92.4534C9.33877 72.403 13.6175 54.4824 20.3082 41.7444C27.1133 28.7885 35.7039 22.3388 43.9499 22.3388C52.1959 22.3388 60.7864 28.7885 67.5915 41.7444ZM75.8592 37.4018C68.4476 23.2913 57.3979 13 43.9499 13C30.5019 13 19.4521 23.2913 12.0406 37.4018C4.51447 51.7303 1.52588e-05 71.2017 1.52588e-05 92.4534C1.52588e-05 113.705 4.51447 133.176 12.0406 147.505C19.4521 161.615 30.5019 171.907 43.9499 171.907C57.3979 171.907 68.4476 161.615 75.8592 147.505C83.3853 133.176 87.8997 113.705 87.8997 92.4534C87.8997 71.2017 83.3853 51.7303 75.8592 37.4018Z" fill="black"/>
<path d="M122.452 92.4536C122.452 114.148 131.752 131.734 143.225 131.734C154.698 131.734 161.197 114.148 161.197 92.4536C161.197 70.7596 154.698 53.1731 143.225 53.1731C131.752 53.1731 122.452 70.7596 122.452 92.4536Z" fill="black"/>
<path d="M43.8913 92.4536C43.8913 114.148 53.1919 131.734 64.6647 131.734C76.1375 131.734 82.6364 114.148 82.6364 92.4536C82.6364 70.7596 76.1375 53.1731 64.6647 53.1731C53.1919 53.1731 43.8913 70.7596 43.8913 92.4536Z" fill="black"/>
<path d="M293.001 10.3221C308.566 10.3221 322.083 12.9436 333.553 18.1866C345.022 23.2658 353.869 30.6387 360.095 40.3055C366.321 49.8084 369.434 61.0317 369.434 73.9753C369.434 86.9189 366.321 98.1422 360.095 107.645C353.869 117.148 345.022 124.521 333.553 129.764C322.083 134.843 308.566 137.383 293.001 137.383H263.018V182.358H214.356V10.3221H293.001ZM290.052 99.0433C300.047 99.0433 307.583 96.9134 312.662 92.6534C317.742 88.2297 320.281 82.0036 320.281 73.9753C320.281 65.947 317.742 59.7209 312.662 55.2971C307.583 50.8734 300.047 48.6615 290.052 48.6615H263.018V99.0433H290.052Z" fill="white"/>
<path d="M436.175 148.934C442.565 148.934 448.053 148.032 452.641 146.23C457.393 144.428 462.144 141.479 466.895 137.383L491.226 162.942C478.61 177.36 459.768 184.57 434.7 184.57C419.135 184.57 405.454 181.62 393.657 175.722C381.861 169.824 372.686 161.632 366.132 151.146C359.742 140.66 356.547 128.781 356.547 115.51C356.547 102.402 359.742 90.6873 366.132 80.3652C372.522 69.8792 381.287 61.687 392.429 55.7887C403.734 49.8903 416.35 46.9411 430.276 46.9411C443.22 46.9411 455.017 49.6446 465.667 55.0514C476.48 60.2944 485.082 68.0769 491.472 78.3991C497.862 88.5574 501.057 100.682 501.057 114.772L405.946 132.959C411.025 143.609 421.101 148.934 436.175 148.934ZM430.522 80.1194C422.494 80.1194 415.94 82.659 410.861 87.7381C405.782 92.6534 402.915 99.7806 402.259 109.12L456.328 98.5518C454.689 92.9811 451.576 88.5574 446.988 85.2805C442.401 81.8398 436.912 80.1194 430.522 80.1194Z" fill="white"/>
<path d="M568.053 148.934C574.443 148.934 579.931 148.032 584.519 146.23C589.27 144.428 594.022 141.479 598.773 137.383L623.104 162.942C610.488 177.36 591.646 184.57 566.578 184.57C551.013 184.57 537.332 181.62 525.535 175.722C513.739 169.824 504.563 161.632 498.01 151.146C491.62 140.66 488.425 128.781 488.425 115.51C488.425 102.402 491.62 90.6873 498.01 80.3652C504.4 69.8792 513.165 61.687 524.307 55.7887C535.612 49.8903 548.228 46.9411 562.154 46.9411C575.098 46.9411 586.895 49.6446 597.545 55.0514C608.358 60.2944 616.96 68.0769 623.35 78.3991C629.74 88.5574 632.935 100.682 632.935 114.772L537.824 132.959C542.903 143.609 552.979 148.934 568.053 148.934ZM562.4 80.1194C554.372 80.1194 547.818 82.659 542.739 87.7381C537.66 92.6534 534.793 99.7806 534.137 109.12L588.206 98.5518C586.567 92.9811 583.454 88.5574 578.866 85.2805C574.279 81.8398 568.79 80.1194 562.4 80.1194Z" fill="white"/>
<path d="M814.957 135.662L801.194 149.671V182.358H754.499V0H801.194V95.6026L848.873 49.153H904.17L848.873 106.171L908.839 182.358H852.313L814.957 135.662Z" fill="white"/>
<path d="M700.617 148.934C707.007 148.934 712.496 148.032 717.083 146.23C721.835 144.428 726.586 141.479 731.338 137.383L755.668 162.942C743.052 177.36 724.21 184.57 699.142 184.57C683.577 184.57 669.896 181.62 658.1 175.722C646.303 169.824 637.128 161.632 630.574 151.146C624.184 140.66 620.989 128.781 620.989 115.51C620.989 102.402 624.184 90.6873 630.574 80.3652C636.964 69.8792 645.729 61.687 656.871 55.7887C668.176 49.8903 680.792 46.9411 694.719 46.9411C707.662 46.9411 719.459 49.6446 730.109 55.0514C740.923 60.2944 749.524 68.0769 755.914 78.3991C762.304 88.5574 765.499 100.682 765.499 114.772L670.388 132.959C675.467 143.609 685.543 148.934 700.617 148.934ZM694.964 80.1194C686.936 80.1194 680.382 82.659 675.303 87.7381C670.224 92.6534 667.357 99.7806 666.701 109.12L720.77 98.5518C719.131 92.9811 716.018 88.5574 711.431 85.2805C706.843 81.8398 701.354 80.1194 694.964 80.1194Z" fill="white"/>
</svg>
