<svg width="22" height="20" viewBox="0 0 22 20" fill="none" xmlns="http://www.w3.org/2000/svg">
<path fill-rule="evenodd" clip-rule="evenodd" d="M22.0003 3.00364C21.192 3.3718 20.3216 3.62067 19.4086 3.73187C20.3409 3.15987 21.0564 2.25272 21.3935 1.17231C20.5205 1.70203 19.5559 2.08737 18.5254 2.29397C17.7042 1.39489 16.5302 0.833374 15.2312 0.833374C12.7402 0.833374 10.7193 2.90567 10.7193 5.46145C10.7193 5.82428 10.758 6.17645 10.8355 6.51556C7.08452 6.32203 3.75942 4.48142 1.53175 1.67814C1.14314 2.36409 0.920906 3.15987 0.920906 4.00739C0.920906 5.61236 1.71772 7.02912 2.92892 7.85945C2.19038 7.83694 1.49291 7.62639 0.883437 7.28212V7.33901C0.883437 9.58216 2.43942 11.4532 4.50553 11.877C4.12723 11.9857 3.72814 12.04 3.31616 12.04C3.02569 12.04 2.74158 12.0121 2.46641 11.9578C3.04098 13.7958 4.7068 15.1346 6.6825 15.1703C5.13803 16.4125 3.19086 17.1526 1.07697 17.1526C0.712766 17.1526 0.352516 17.1314 0 17.089C1.9977 18.3999 4.37112 19.1666 6.91883 19.1666C15.2219 19.1666 19.7608 12.1152 19.7608 5.99891C19.7608 5.79764 19.7569 5.59637 19.7491 5.39906C20.6315 4.74628 21.3972 3.93194 22.0003 3.00364Z" fill="black"/>
</svg>
