<svg width="35" height="35" viewBox="0 0 35 35" fill="none" xmlns="http://www.w3.org/2000/svg">
<path d="M33.6625 14.9538C33.3889 14.7794 31.2312 13.4901 30.3763 13.097L29.3163 10.5323C29.6309 9.68434 30.236 7.30759 30.3422 6.89376H30.342C30.4283 6.51115 30.3122 6.11091 30.0343 5.83374L28.3622 4.17187C28.0857 3.89279 27.6847 3.77638 27.3021 3.86416C26.9875 3.93596 24.5664 4.54802 23.6636 4.89011L21.0989 3.83009C20.726 3.00932 19.4711 0.906391 19.2421 0.543852V0.543613C19.036 0.20633 18.6697 0.000476302 18.2744 0H15.9215C15.5289 0.00023853 15.1637 0.201561 14.9538 0.53336C14.7794 0.806959 13.4901 2.9647 13.097 3.8196L10.5323 4.87962C9.68434 4.56499 7.30759 3.95986 6.89376 3.85367V3.85391C6.51115 3.76756 6.11091 3.88373 5.83374 4.16162L4.17187 5.83375C3.89279 6.1102 3.77638 6.5112 3.86416 6.89376C3.93596 7.20838 4.54802 9.62951 4.89011 10.5323L3.83009 13.097C3.00933 13.4699 0.906391 14.7248 0.543852 14.9538H0.543613C0.20633 15.1599 0.000476302 15.5262 0 15.9215V18.2708C0.000238517 18.6637 0.201561 19.0289 0.53336 19.2386C0.806959 19.413 2.9647 20.7022 3.8196 21.0953L4.87962 23.66C4.56499 24.508 3.95986 26.8848 3.85367 27.2986H3.85391C3.76756 27.6814 3.88373 28.0817 4.16162 28.3586L5.82349 30.0205V30.0207C6.09994 30.2998 6.50094 30.416 6.8835 30.3284C7.19813 30.2566 9.61925 29.6446 10.5221 29.3025L13.0868 30.3625C13.4596 31.1833 14.7145 33.2862 14.9435 33.6487C15.1506 33.9906 15.522 34.1983 15.9215 34.1959H18.2708C18.6637 34.1957 19.0289 33.9944 19.2386 33.6626C19.413 33.389 20.7022 31.2312 21.0953 30.3763L23.66 29.3163C24.508 29.6309 26.8848 30.2361 27.2986 30.3423V30.342C27.6814 30.4284 28.0817 30.3122 28.3586 30.0343L30.0205 28.3724H30.0207C30.2998 28.096 30.416 27.695 30.3284 27.3124C30.2566 26.9978 29.6446 24.5767 29.3025 23.6738L30.3625 21.1091C31.1833 20.7363 33.2862 19.4814 33.6487 19.2524C33.9906 19.0454 34.1983 18.674 34.1959 18.2744V15.9215C34.199 15.5282 33.9968 15.1614 33.6626 14.9538L33.6625 14.9538ZM17.0976 24.5421C15.1214 24.5404 13.2269 23.7535 11.8308 22.355C10.4347 20.9563 9.65136 19.0604 9.65326 17.0842C9.65493 15.108 10.4418 13.2132 11.8403 11.8171C13.2391 10.421 15.1349 9.63787 17.1112 9.63958C19.0874 9.64148 20.9821 10.4282 22.3782 11.8269C23.7743 13.2256 24.5575 15.1215 24.5558 17.0977C24.5512 19.073 23.7636 20.966 22.3656 22.3617C20.9673 23.7571 19.0729 24.5414 17.0975 24.5421H17.0976Z" fill="black"/>
</svg>
