<svg width="34" height="32" viewBox="0 0 34 32" fill="none" xmlns="http://www.w3.org/2000/svg">
<path d="M32.6181 14.6717L29.8594 11.8203C29.7009 11.6565 29.6269 11.4287 29.6588 11.2031L30.2137 7.2752C30.337 6.4026 29.7458 5.59007 28.8779 5.43674L24.9704 4.75143C24.7459 4.71205 24.5521 4.57125 24.4452 4.36988L22.5864 0.866663C22.1754 0.0904929 21.219 -0.220924 20.4286 0.166371L16.8643 1.90795C16.6596 2.00799 16.4201 2.00799 16.2154 1.90795L12.6511 0.166371C11.8607 -0.220924 10.9043 0.0904928 10.4917 0.868243L8.63289 4.37294C8.52605 4.57438 8.33222 4.71522 8.10764 4.75461L4.20017 5.4399C3.33231 5.59165 2.7411 6.40418 2.8644 7.27678L3.41931 11.2046C3.4512 11.4303 3.37716 11.6581 3.21868 11.8219L0.460011 14.6733C-0.153337 15.3072 -0.153337 16.311 0.460011 16.9449L3.21868 19.7963C3.37716 19.9601 3.4512 20.1879 3.41931 20.4136L2.8644 24.3414C2.7411 25.214 3.33231 26.0266 4.20017 26.1799L8.10772 26.8652C8.33226 26.9046 8.52606 27.0454 8.63291 27.2468L10.4917 30.75C10.9043 31.5277 11.8607 31.8392 12.6527 31.4519L16.2153 29.709C16.4201 29.6088 16.6597 29.6087 16.8645 29.7088L20.4286 31.4503C21.2206 31.8376 22.1754 31.5262 22.5895 30.7484L24.4484 27.2452C24.5552 27.0438 24.749 26.903 24.9736 26.8636L28.8811 26.1783C29.749 26.0266 30.3402 25.2125 30.2169 24.3399L29.662 20.412C29.6301 20.1863 29.7041 19.9585 29.8626 19.7947L32.6213 16.9433C33.2299 16.311 33.2299 15.3056 32.6181 14.6717ZM15.4817 22.2633C15.193 22.552 14.7251 22.552 14.4364 22.2633L9.62165 17.4485C9.33303 17.1599 9.33303 16.692 9.62165 16.4033L10.8117 15.2133C11.1003 14.9247 11.5683 14.9247 11.8569 15.2133L14.4364 17.7929C14.7251 18.0815 15.193 18.0815 15.4817 17.7929L22.8036 10.4709C23.0922 10.1823 23.5602 10.1823 23.8488 10.4709L25.0388 11.661C25.3275 11.9496 25.3275 12.4175 25.0388 12.7062L15.4817 22.2633Z" fill="black"/>
</svg>
